<?xml version="1.0" encoding="UTF-8"?><svg id="robotics" xmlns="http://www.w3.org/2000/svg" xmlns:xlink="http://www.w3.org/1999/xlink" viewBox="0 0 288 288"><defs><style>.cls-1{fill:url(#linear-gradient-13);}.cls-1,.cls-2,.cls-3,.cls-4,.cls-5,.cls-6,.cls-7,.cls-8,.cls-9,.cls-10,.cls-11,.cls-12,.cls-13{stroke:#51baf4;stroke-miterlimit:10;stroke-width:7px;}.cls-2{fill:url(#linear-gradient-12);}.cls-3{fill:url(#linear-gradient-10);}.cls-4{fill:url(#linear-gradient-11);}.cls-5{fill:url(#linear-gradient-15);}.cls-6{fill:url(#linear-gradient-14);}.cls-14{fill:url(#linear-gradient);}.cls-14,.cls-15,.cls-16{stroke-width:0px;}.cls-15{fill:url(#linear-gradient-2);}.cls-16{fill:url(#linear-gradient-3);}.cls-7{fill:none;}.cls-8{fill:url(#linear-gradient-4);}.cls-9{fill:url(#linear-gradient-7);}.cls-10{fill:url(#linear-gradient-5);}.cls-11{fill:url(#linear-gradient-9);}.cls-12{fill:url(#linear-gradient-8);}.cls-13{fill:url(#linear-gradient-6);}</style><linearGradient id="linear-gradient" x1="79.83" y1="150.59" x2="135.42" y2="150.59" gradientUnits="userSpaceOnUse"><stop offset="0" stop-color="#9a00a2"/><stop offset=".17" stop-color="#9400a4"/><stop offset=".4" stop-color="#8400ac"/><stop offset=".66" stop-color="#6900b9"/><stop offset=".93" stop-color="#4400ca"/><stop offset="1" stop-color="#3a00d0"/></linearGradient><linearGradient id="linear-gradient-2" x1="92.47" y1="76.88" x2="172.18" y2="76.88" xlink:href="#linear-gradient"/><linearGradient id="linear-gradient-3" x1="104.06" y1="240.72" x2="172.74" y2="240.72" xlink:href="#linear-gradient"/><linearGradient id="linear-gradient-4" x1="50.89" y1="97.63" x2="99.68" y2="97.63" xlink:href="#linear-gradient"/><linearGradient id="linear-gradient-5" x1="104.06" y1="207.01" x2="170.1" y2="207.01" xlink:href="#linear-gradient"/><linearGradient id="linear-gradient-6" x1="125.24" y1="207.01" x2="148.93" y2="207.01" xlink:href="#linear-gradient"/><linearGradient id="linear-gradient-7" x1="65.37" y1="97.63" x2="85.2" y2="97.63" xlink:href="#linear-gradient"/><linearGradient id="linear-gradient-8" x1="90.96" y1="63.18" x2="166.49" y2="63.18" gradientUnits="userSpaceOnUse"><stop offset="0" stop-color="#ff94fb"/><stop offset=".1" stop-color="#f992fa"/><stop offset=".22" stop-color="#e98ef9"/><stop offset=".36" stop-color="#ce87f7"/><stop offset=".51" stop-color="#a87ef4"/><stop offset=".67" stop-color="#7972f1"/><stop offset=".84" stop-color="#3f64ec"/><stop offset="1" stop-color="#0055e8"/></linearGradient><linearGradient id="linear-gradient-9" x1="164.46" y1="56.35" x2="208.74" y2="56.35" gradientTransform="translate(33.25 -63.97) rotate(21.31)" xlink:href="#linear-gradient"/><linearGradient id="linear-gradient-10" x1="99.1" y1="88.82" x2="174.64" y2="88.82" xlink:href="#linear-gradient-8"/><linearGradient id="linear-gradient-11" x1="78.01" y1="157.52" x2="106.97" y2="157.52" xlink:href="#linear-gradient-8"/><linearGradient id="linear-gradient-12" x1="95.75" y1="142.45" x2="137.08" y2="142.45" xlink:href="#linear-gradient-8"/><linearGradient id="linear-gradient-13" x1="76.63" y1="264.01" x2="195.54" y2="264.01" xlink:href="#linear-gradient"/><linearGradient id="linear-gradient-14" x1="180.21" y1="20.77" x2="226" y2="20.77" xlink:href="#linear-gradient"/><linearGradient id="linear-gradient-15" x1="195.75" y1="69.63" x2="238.95" y2="69.63" xlink:href="#linear-gradient"/></defs><polygon class="cls-14" points="79.83 124.18 106.14 187.22 121.69 176.3 135.42 171.45 97.74 113.96 79.83 124.18"/><polygon class="cls-15" points="92.47 77.78 164.49 53.31 172.18 73.24 103.05 100.46 92.47 77.78"/><polygon class="cls-16" points="109.31 231 104.06 251.71 172.74 250.92 164.45 229.72 148.93 237.84 127.96 240.03 109.31 231"/><circle class="cls-8" cx="75.29" cy="97.63" r="24.39"/><circle class="cls-10" cx="137.08" cy="207.01" r="33.02"/><circle class="cls-13" cx="137.08" cy="207.01" r="11.84"/><polyline class="cls-7" points="108.86 226.68 101.18 252.95 174.64 252.95 165.43 223.94"/><circle class="cls-9" cx="75.29" cy="97.63" r="9.91"/><line class="cls-12" x1="90.96" y1="76.38" x2="166.49" y2="49.99"/><rect class="cls-11" x="170.3" y="37.21" width="32.59" height="38.28" transform="translate(-7.72 71.68) rotate(-21.31)"/><path class="cls-3" d="m99.1,102.93c25.18-9.41,50.36-18.81,75.54-28.22"/><path class="cls-4" d="m78.01,123.36c9.65,22.78,19.3,45.55,28.95,68.33"/><line class="cls-2" x1="95.75" y1="110.92" x2="137.08" y2="173.98"/><rect class="cls-1" x="76.63" y="253.8" width="118.91" height="20.42" rx="6.28" ry="6.28"/><polygon class="cls-6" points="180.21 35.61 192 5.93 226 22.33 199.85 21.79 197.14 32.76 180.21 35.61"/><polygon class="cls-5" points="195.75 72.45 224.17 87 238.95 52.26 219.64 69.9 210.36 63.43 195.75 72.45"/></svg>