<?xml version="1.0" encoding="UTF-8"?><svg id="EELS" xmlns="http://www.w3.org/2000/svg" xmlns:xlink="http://www.w3.org/1999/xlink" viewBox="0 0 288 288"><defs><style>.cls-1{fill:url(#linear-gradient-25);}.cls-1,.cls-2,.cls-3,.cls-4,.cls-5,.cls-6,.cls-7,.cls-8,.cls-9,.cls-10,.cls-11,.cls-12,.cls-13,.cls-14,.cls-15,.cls-16,.cls-17,.cls-18,.cls-19,.cls-20,.cls-21,.cls-22,.cls-23,.cls-24,.cls-25,.cls-26,.cls-27,.cls-28,.cls-29,.cls-30,.cls-31,.cls-32,.cls-33,.cls-34,.cls-35,.cls-36,.cls-37,.cls-38,.cls-39,.cls-40{stroke:#51baf4;stroke-miterlimit:10;stroke-width:3px;}.cls-2{fill:url(#linear-gradient-33);}.cls-3{fill:url(#linear-gradient-28);}.cls-4{fill:url(#linear-gradient-32);}.cls-5{fill:url(#linear-gradient-30);}.cls-6{fill:url(#linear-gradient-29);}.cls-7{fill:url(#linear-gradient-35);}.cls-8{fill:url(#linear-gradient-31);}.cls-9{fill:url(#linear-gradient-39);}.cls-10{fill:url(#linear-gradient-34);}.cls-11{fill:url(#linear-gradient-36);}.cls-12{fill:url(#linear-gradient-37);}.cls-13{fill:url(#linear-gradient-13);}.cls-14{fill:url(#linear-gradient-12);}.cls-15{fill:url(#linear-gradient-10);}.cls-16{fill:url(#linear-gradient-11);}.cls-17{fill:url(#linear-gradient-20);}.cls-18{fill:url(#linear-gradient-23);}.cls-19{fill:url(#linear-gradient-21);}.cls-20{fill:url(#linear-gradient-16);}.cls-21{fill:url(#linear-gradient-15);}.cls-22{fill:url(#linear-gradient-19);}.cls-23{fill:url(#linear-gradient-17);}.cls-24{fill:url(#linear-gradient-18);}.cls-25{fill:url(#linear-gradient-22);}.cls-26{fill:url(#linear-gradient-14);}.cls-27{fill:url(#linear-gradient-40);}.cls-28{fill:url(#linear-gradient-38);}.cls-29{fill:url(#linear-gradient-26);}.cls-30{fill:url(#linear-gradient-27);}.cls-31{fill:url(#linear-gradient-24);}.cls-32{fill:url(#linear-gradient-3);}.cls-33{fill:url(#linear-gradient-4);}.cls-34{fill:url(#linear-gradient-7);}.cls-35{fill:url(#linear-gradient-2);}.cls-36{fill:url(#linear-gradient-5);}.cls-37{fill:url(#linear-gradient-9);}.cls-38{fill:url(#linear-gradient-8);}.cls-39{fill:url(#linear-gradient-6);}.cls-40{fill:url(#linear-gradient);}</style><linearGradient id="linear-gradient" x1="23.6" y1="241.16" x2="34.27" y2="259.64" gradientTransform="translate(155.16 32.22) rotate(36.64)" gradientUnits="userSpaceOnUse"><stop offset="0" stop-color="#0001d4"/><stop offset=".09" stop-color="#1400d4"/><stop offset=".41" stop-color="#5800d4"/><stop offset=".68" stop-color="#8a00d4"/><stop offset=".89" stop-color="#a900d4"/><stop offset="1" stop-color="#b500d4"/></linearGradient><linearGradient id="linear-gradient-2" x1="28.77" y1="234.73" x2="41.59" y2="256.94" gradientTransform="translate(153.67 27.59) rotate(36.64)" xlink:href="#linear-gradient"/><linearGradient id="linear-gradient-3" x1="29.23" y1="235.53" x2="41.13" y2="256.13" gradientTransform="matrix(1,0,0,1,0,0)" xlink:href="#linear-gradient"/><linearGradient id="linear-gradient-4" x1="25.5" y1="237.25" x2="32.68" y2="249.68" gradientTransform="matrix(1,0,0,1,0,0)" xlink:href="#linear-gradient"/><linearGradient id="linear-gradient-5" x1="38.99" y1="243.03" x2="45.48" y2="254.28" gradientTransform="matrix(1,0,0,1,0,0)" xlink:href="#linear-gradient"/><linearGradient id="linear-gradient-6" x1="54.66" y1="206.69" x2="69.29" y2="232.02" gradientTransform="translate(191.54 31.81) rotate(50.42)" xlink:href="#linear-gradient"/><linearGradient id="linear-gradient-7" x1="60.08" y1="201.52" x2="73.84" y2="225.35" gradientTransform="translate(188.78 25.82) rotate(50.42)" xlink:href="#linear-gradient"/><linearGradient id="linear-gradient-8" x1="60.63" y1="202.48" x2="73.28" y2="224.38" gradientTransform="matrix(1,0,0,1,0,0)" xlink:href="#linear-gradient"/><linearGradient id="linear-gradient-9" x1="56.68" y1="205.99" x2="64.28" y2="219.17" gradientTransform="matrix(1,0,0,1,0,0)" xlink:href="#linear-gradient"/><linearGradient id="linear-gradient-10" x1="70.68" y1="208.85" x2="77.44" y2="220.56" gradientTransform="matrix(1,0,0,1,0,0)" xlink:href="#linear-gradient"/><linearGradient id="linear-gradient-11" x1="71.85" y1="160.21" x2="91.69" y2="194.58" gradientTransform="translate(238.6 60.95) rotate(78.15)" xlink:href="#linear-gradient"/><linearGradient id="linear-gradient-12" x1="76.8" y1="158.37" x2="90.05" y2="181.31" gradientTransform="translate(232.51 53.32) rotate(78.15)" xlink:href="#linear-gradient"/><linearGradient id="linear-gradient-13" x1="77.45" y1="159.49" x2="89.39" y2="180.18" gradientTransform="matrix(1,0,0,1,0,0)" xlink:href="#linear-gradient"/><linearGradient id="linear-gradient-14" x1="73.72" y1="165.91" x2="80.86" y2="178.28" gradientTransform="matrix(1,0,0,1,0,0)" xlink:href="#linear-gradient"/><linearGradient id="linear-gradient-15" x1="87.05" y1="162.03" x2="93.55" y2="173.28" gradientTransform="matrix(1,0,0,1,0,0)" xlink:href="#linear-gradient"/><linearGradient id="linear-gradient-16" x1="92.72" y1="121.26" x2="108.69" y2="148.93" gradientTransform="translate(156.11 -24.04) rotate(55.9)" xlink:href="#linear-gradient"/><linearGradient id="linear-gradient-17" x1="98.15" y1="116.68" x2="112.06" y2="140.78" gradientTransform="translate(152.77 -30.48) rotate(55.9)" xlink:href="#linear-gradient"/><linearGradient id="linear-gradient-18" x1="98.73" y1="117.69" x2="111.47" y2="139.76" gradientTransform="matrix(1,0,0,1,0,0)" xlink:href="#linear-gradient"/><linearGradient id="linear-gradient-19" x1="94.74" y1="121.87" x2="102.4" y2="135.13" gradientTransform="matrix(1,0,0,1,0,0)" xlink:href="#linear-gradient"/><linearGradient id="linear-gradient-20" x1="108.88" y1="123.4" x2="115.71" y2="135.23" gradientTransform="matrix(1,0,0,1,0,0)" xlink:href="#linear-gradient"/><linearGradient id="linear-gradient-21" x1="126.45" y1="91.43" x2="136.67" y2="109.13" gradientTransform="translate(81.9 -57.51) rotate(35.22)" xlink:href="#linear-gradient"/><linearGradient id="linear-gradient-22" x1="131.58" y1="84.89" x2="144.26" y2="106.85" gradientTransform="translate(80.53 -61.99) rotate(35.22)" xlink:href="#linear-gradient"/><linearGradient id="linear-gradient-23" x1="132.03" y1="85.67" x2="143.81" y2="106.07" gradientTransform="matrix(1,0,0,1,0,0)" xlink:href="#linear-gradient"/><linearGradient id="linear-gradient-24" x1="128.34" y1="87.19" x2="135.45" y2="99.51" gradientTransform="matrix(1,0,0,1,0,0)" xlink:href="#linear-gradient"/><linearGradient id="linear-gradient-25" x1="141.33" y1="93.57" x2="147.56" y2="104.36" gradientTransform="matrix(1,0,0,1,0,0)" xlink:href="#linear-gradient"/><linearGradient id="linear-gradient-26" x1="165.63" y1="68.92" x2="178.08" y2="90.49" gradientTransform="translate(31.8 -47.86) rotate(17.45)" xlink:href="#linear-gradient"/><linearGradient id="linear-gradient-27" x1="172.6" y1="65.92" x2="185.92" y2="88.99" gradientTransform="translate(31.47 -50.18) rotate(17.45)" xlink:href="#linear-gradient"/><linearGradient id="linear-gradient-28" x1="174.39" y1="69.02" x2="184.12" y2="85.87" gradientTransform="matrix(1,0,0,1,0,0)" xlink:href="#linear-gradient"/><linearGradient id="linear-gradient-29" x1="171.33" y1="68.1" x2="177.24" y2="78.32" gradientTransform="matrix(1,0,0,1,0,0)" xlink:href="#linear-gradient"/><linearGradient id="linear-gradient-30" x1="181.99" y1="78" x2="187.05" y2="86.77" gradientTransform="matrix(1,0,0,1,0,0)" xlink:href="#linear-gradient"/><linearGradient id="linear-gradient-31" x1="208.6" y1="53.1" x2="217.76" y2="68.98" gradientTransform="translate(64.54 -103.51) rotate(31.93)" xlink:href="#linear-gradient"/><linearGradient id="linear-gradient-32" x1="213.62" y1="46.33" x2="225.95" y2="67.68" gradientTransform="translate(63.4 -107.62) rotate(31.93)" xlink:href="#linear-gradient"/><linearGradient id="linear-gradient-33" x1="214.04" y1="47.06" x2="225.52" y2="66.94" gradientTransform="matrix(1,0,0,1,0,0)" xlink:href="#linear-gradient"/><linearGradient id="linear-gradient-34" x1="210.44" y1="48.14" x2="217.38" y2="60.15" gradientTransform="matrix(1,0,0,1,0,0)" xlink:href="#linear-gradient"/><linearGradient id="linear-gradient-35" x1="223.09" y1="55.22" x2="229.14" y2="65.71" gradientTransform="matrix(1,0,0,1,0,0)" xlink:href="#linear-gradient"/><linearGradient id="linear-gradient-36" x1="243.83" y1="24.83" x2="256.35" y2="46.53" gradientTransform="translate(79.44 -150.59) rotate(39.39)" xlink:href="#linear-gradient"/><linearGradient id="linear-gradient-37" x1="243.47" y1="24.2" x2="246.22" y2="28.96" gradientTransform="translate(72.47 -149.33) rotate(39.39)" xlink:href="#linear-gradient"/><linearGradient id="linear-gradient-38" x1="256.89" y1="40.54" x2="259.67" y2="45.35" gradientTransform="translate(85.91 -154.14) rotate(39.39)" xlink:href="#linear-gradient"/><linearGradient id="linear-gradient-39" x1="262.2" y1="17.01" x2="268.82" y2="28.47" gradientTransform="translate(74.73 -163.32) rotate(39.39)" xlink:href="#linear-gradient"/><linearGradient id="linear-gradient-40" x1="248.42" y1="29.6" x2="253.6" y2="38.58" gradientTransform="translate(78.64 -151.53) rotate(39.39)" xlink:href="#linear-gradient"/></defs><rect class="cls-40" x="9.93" y="241.87" width="37.99" height="17.06" transform="translate(-143.73 66.75) rotate(-36.64)"/><rect class="cls-35" x="28.24" y="233.74" width="13.89" height="24.19" transform="translate(-139.77 69.58) rotate(-36.64)"/><line class="cls-32" x1="33.2" y1="233.24" x2="37.16" y2="258.42"/><path class="cls-33" d="m27.81,235.92c.86,5.03,1.71,10.06,2.57,15.09"/><path class="cls-36" d="m40.92,241.92c.88,4.49,1.75,8.99,2.63,13.48"/><rect class="cls-39" x="42.98" y="210.82" width="37.99" height="17.06" transform="translate(-146.57 127.34) rotate(-50.42)"/><rect class="cls-34" x="60.02" y="201.34" width="13.89" height="24.19" transform="translate(-140.2 129.04) rotate(-50.42)"/><line class="cls-38" x1="62.03" y1="201.67" x2="71.88" y2="225.18"/><path class="cls-37" d="m57.44,205.56c2.03,4.68,4.06,9.36,6.09,14.05"/><path class="cls-15" d="m71.65,208.3c1.61,4.27,3.22,8.54,4.82,12.82"/><rect class="cls-16" x="62.77" y="168.86" width="37.99" height="17.06" transform="translate(-108.64 221) rotate(-78.15)"/><rect class="cls-14" x="76.48" y="157.74" width="13.89" height="24.19" transform="translate(-99.92 216.61) rotate(-78.15)"/><line class="cls-13" x1="73.59" y1="161.72" x2="93.25" y2="177.95"/><path class="cls-26" d="m71.33,167.3c3.98,3.2,7.95,6.4,11.93,9.6"/><path class="cls-21" d="m85.18,163.11c3.41,3.03,6.82,6.07,10.24,9.1"/><rect class="cls-20" x="81.71" y="126.57" width="37.99" height="17.06" transform="translate(-67.62 142.74) rotate(-55.9)"/><rect class="cls-23" x="98.16" y="116.63" width="13.89" height="24.19" transform="translate(-60.42 143.59) rotate(-55.9)"/><line class="cls-24" x1="99.07" y1="117.49" x2="111.12" y2="139.96"/><path class="cls-22" d="m94.87,121.8c2.47,4.47,4.94,8.93,7.41,13.4"/><path class="cls-17" d="m109.28,123.17c2.01,4.1,4.02,8.2,6.03,12.3"/><rect class="cls-19" x="112.56" y="91.75" width="37.99" height="17.06" transform="translate(-33.75 94.22) rotate(-35.22)"/><rect class="cls-25" x="130.98" y="83.78" width="13.89" height="24.19" transform="translate(-30.04 97.08) rotate(-35.22)"/><line class="cls-18" x1="136.25" y1="83.23" x2="139.59" y2="108.5"/><path class="cls-31" d="m130.8,85.78c.73,5.05,1.46,10.1,2.19,15.15"/><path class="cls-1" d="m143.79,92.15c.43,4.54.86,9.09,1.3,13.63"/><rect class="cls-29" x="152.86" y="71.18" width="37.99" height="17.06" transform="translate(-15.99 55.19) rotate(-17.45)"/><rect class="cls-30" x="172.31" y="65.36" width="13.89" height="24.19" transform="translate(-14.97 57.31) rotate(-17.45)"/><line class="cls-3" x1="181.52" y1="64.9" x2="176.99" y2="89.99"/><path class="cls-6" d="m175.55,65.66c-.84,5.03-1.69,10.07-2.53,15.1"/><path class="cls-5" d="m185.99,75.69c-.98,4.46-1.95,8.92-2.93,13.38"/><rect class="cls-8" x="194.18" y="52.51" width="37.99" height="17.06" transform="translate(-.03 121.98) rotate(-31.93)"/><rect class="cls-4" x="212.84" y="44.91" width="13.89" height="24.19" transform="translate(3.11 124.87) rotate(-31.93)"/><line class="cls-2" x1="218.84" y1="44.29" x2="220.72" y2="69.71"/><path class="cls-10" d="m213.25,46.52c.44,5.08.88,10.17,1.32,15.25"/><path class="cls-7" d="m225.86,53.62c.17,4.56.34,9.12.51,13.68"/><rect class="cls-11" x="231.24" y="26.1" width="37.69" height="19.16" transform="translate(34.16 166.8) rotate(-39.39)"/><rect class="cls-12" x="232.7" y="25.81" width="24.29" height="1.55" transform="translate(38.74 161.4) rotate(-39.39)"/><rect class="cls-28" x="246.13" y="42.14" width="24.29" height="1.62" transform="translate(31.41 173.64) rotate(-39.39)"/><rect class="cls-9" x="264.23" y="16.24" width="2.57" height="13" transform="translate(45.87 173.64) rotate(-39.39)"/><rect class="cls-27" x="238.87" y="30.84" width="24.29" height="6.5" transform="translate(35.37 167.02) rotate(-39.39)"/></svg>