<?xml version="1.0" encoding="UTF-8"?><svg id="hammer" xmlns="http://www.w3.org/2000/svg" xmlns:xlink="http://www.w3.org/1999/xlink" viewBox="0 0 288 288"><defs><style>.cls-1{fill:url(#linear-gradient-2);}.cls-1,.cls-2{stroke:#00c6f8;stroke-miterlimit:10;stroke-width:10px;}.cls-2{fill:url(#linear-gradient);}</style><linearGradient id="linear-gradient" x1="142.31" y1="59.99" x2="241.2" y2="59.99" gradientTransform="translate(269.57 251.41) rotate(-93.98) scale(1 -1)" gradientUnits="userSpaceOnUse"><stop offset=".53" stop-color="#ea8eff"/><stop offset="1" stop-color="#3081ff"/></linearGradient><linearGradient id="linear-gradient-2" x1="28.74" y1="175.05" x2="195.53" y2="175.05" gradientTransform="translate(171.81 -24.09) rotate(49.32)" gradientUnits="userSpaceOnUse"><stop offset="0" stop-color="#30b3ff"/><stop offset=".03" stop-color="#0c5fff"/><stop offset="1" stop-color="#e287ff"/></linearGradient></defs><path class="cls-2" d="m194.14,60.25c-6.1,6.92-12.2,13.84-18.3,20.75,6.56,5.64,13.12,11.28,19.68,16.92,5.54-6.07,11.09-12.15,16.63-18.22,10.41,10.29,20.82,20.58,31.23,30.87,8.98-9.93,17.96-19.87,26.95-29.8-5.74-7.22-14.23-17.06-25.63-27.57-14.76-13.6-24.44-22.69-38.26-28.65-39.59-17.1-85.58-.19-85.38,2.97.03.45,1.02.71,2.37,1.06,17.06,4.33,36.76,8.28,41.74,9.55,7.91,2.03,18.34,7.37,28.96,22.12Z"/><rect class="cls-1" x="-.71" y="162.08" width="225.7" height="25.96" transform="translate(-93.71 146.01) rotate(-49.32)"/></svg>