<?xml version="1.0" encoding="UTF-8"?><svg id="PlasmaDrill" xmlns="http://www.w3.org/2000/svg" xmlns:xlink="http://www.w3.org/1999/xlink" viewBox="0 0 288 288"><defs><style>.cls-1{fill:url(#linear-gradient-2);stroke-width:3px;}.cls-1,.cls-2{stroke:#51baf4;stroke-miterlimit:10;}.cls-2{fill:url(#linear-gradient);stroke-width:6px;}</style><linearGradient id="linear-gradient" x1="72.74" y1="134.08" x2="232.88" y2="134.08" gradientUnits="userSpaceOnUse"><stop offset="0" stop-color="#0001d4"/><stop offset=".09" stop-color="#1400d4"/><stop offset=".41" stop-color="#5800d4"/><stop offset=".68" stop-color="#8a00d4"/><stop offset=".89" stop-color="#a900d4"/><stop offset="1" stop-color="#b500d4"/></linearGradient><linearGradient id="linear-gradient-2" x1="136.06" y1="143.72" x2="170" y2="143.72" gradientUnits="userSpaceOnUse"><stop offset="0" stop-color="#bf1a00"/><stop offset="1" stop-color="#ffdc2a"/></linearGradient></defs><path class="cls-2" d="m141.91,69.66c-22.53,39.06-45.06,78.12-67.59,117.18-4.5,7.8,1.16,17.54,10.17,17.49l136.78-.8c9.01-.05,14.56-9.87,9.96-17.62-23.06-38.79-46.12-77.59-69.19-116.38-4.56-7.66-15.67-7.59-20.13.13Z"/><polygon class="cls-1" points="147.13 101.97 136.06 150.18 153.77 144.65 151.19 167.4 143.81 163.59 150.08 186.34 166.07 167.89 157.09 168.01 170 127.8 147.75 136.65 161.64 101.11 147.13 101.97"/></svg>