<?xml version="1.0" encoding="UTF-8"?><svg xmlns="http://www.w3.org/2000/svg" viewBox="0 0 288 288"><defs><style>.cls-1{fill:none;stroke:#6dceff;stroke-miterlimit:10;stroke-width:10px;}</style></defs><g id="Layer_1"><polygon class="cls-1" points="257.04 178.7 271.67 178.7 265.15 170.01 257.04 178.7"/></g><g id="Education"><path class="cls-1" d="m280.57,108.54c0,5.93-119.38,43.91-132.98,45.07-13.6,1.16-138.92-36.48-138.92-45.07s129.6-44.82,140.66-44.82,131.25,38.89,131.25,44.82Z"/><path class="cls-1" d="m60.18,147.67v53.24s39.49,25.12,89.15,23.28,80.98-21.05,80.98-21.05v-55.47s-32.79,20.64-80.73,24.02c-47.94,3.38-89.4-24.02-89.4-24.02Z"/><path class="cls-1" d="m264.72,119.31c-.13,19.55-.26,39.11-.39,58.66"/><line class="cls-1" x1="256.33" y1="155.08" x2="272.9" y2="155.08"/><line class="cls-1" x1="38.65" y1="108.68" x2="138.37" y2="78.44"/></g></svg>