<?xml version="1.0" encoding="UTF-8"?><svg id="SROC" xmlns="http://www.w3.org/2000/svg" xmlns:xlink="http://www.w3.org/1999/xlink" viewBox="0 0 288 288"><defs><style>.cls-1{fill:url(#linear-gradient-13);}.cls-1,.cls-2,.cls-3,.cls-4,.cls-5,.cls-6,.cls-7,.cls-8,.cls-9,.cls-10,.cls-11,.cls-12,.cls-13,.cls-14,.cls-15{stroke:#51baf4;stroke-miterlimit:10;stroke-width:3px;}.cls-2{fill:url(#linear-gradient-12);}.cls-3{fill:url(#linear-gradient-10);}.cls-4{fill:url(#linear-gradient-11);}.cls-5{fill:url(#linear-gradient-15);}.cls-6{fill:url(#linear-gradient-14);}.cls-7{fill:url(#linear-gradient-3);}.cls-8{fill:url(#linear-gradient-4);}.cls-9{fill:url(#linear-gradient-7);}.cls-10{fill:url(#linear-gradient-2);}.cls-11{fill:url(#linear-gradient-5);}.cls-12{fill:url(#linear-gradient-9);}.cls-13{fill:url(#linear-gradient-8);}.cls-14{fill:url(#linear-gradient-6);}.cls-15{fill:url(#linear-gradient);}</style><linearGradient id="linear-gradient" x1="123.88" y1="95.06" x2="176.32" y2="95.06" gradientUnits="userSpaceOnUse"><stop offset="0" stop-color="#0001d4"/><stop offset=".09" stop-color="#1400d4"/><stop offset=".41" stop-color="#5800d4"/><stop offset=".68" stop-color="#8a00d4"/><stop offset=".89" stop-color="#a900d4"/><stop offset="1" stop-color="#b500d4"/></linearGradient><linearGradient id="linear-gradient-2" x1="124.69" y1="179.5" x2="176.32" y2="179.5" xlink:href="#linear-gradient"/><linearGradient id="linear-gradient-3" x1="27.97" y1="182.39" x2="110.63" y2="182.39" xlink:href="#linear-gradient"/><linearGradient id="linear-gradient-4" x1="110.63" y1="182.39" x2="124.69" y2="182.39" xlink:href="#linear-gradient"/><linearGradient id="linear-gradient-5" x1="176.32" y1="182.39" x2="190.39" y2="182.39" xlink:href="#linear-gradient"/><linearGradient id="linear-gradient-6" x1="134.24" y1="152.04" x2="166.78" y2="152.04" xlink:href="#linear-gradient"/><linearGradient id="linear-gradient-7" x1="145.59" y1="211.67" x2="155.42" y2="211.67" xlink:href="#linear-gradient"/><linearGradient id="linear-gradient-8" x1="35.07" y1="182.39" x2="53.9" y2="182.39" xlink:href="#linear-gradient"/><linearGradient id="linear-gradient-9" x1="124.69" y1="191.47" x2="175.58" y2="191.47" xlink:href="#linear-gradient"/><linearGradient id="linear-gradient-10" x1="60.69" y1="182.39" x2="79.52" y2="182.39" xlink:href="#linear-gradient"/><linearGradient id="linear-gradient-11" x1="86.32" y1="182.39" x2="105.15" y2="182.39" xlink:href="#linear-gradient"/><linearGradient id="linear-gradient-12" x1="191.22" y1="182.39" x2="273.88" y2="182.39" xlink:href="#linear-gradient"/><linearGradient id="linear-gradient-13" x1="198.32" y1="182.39" x2="217.15" y2="182.39" xlink:href="#linear-gradient"/><linearGradient id="linear-gradient-14" x1="223.94" y1="182.39" x2="242.77" y2="182.39" xlink:href="#linear-gradient"/><linearGradient id="linear-gradient-15" x1="249.57" y1="182.39" x2="268.4" y2="182.39" xlink:href="#linear-gradient"/></defs><path class="cls-15" d="m176.32,147.01h-51.63c-.27-10.7-.54-21.39-.82-32.09,5.17-41.85,16.38-71.87,26.46-71.83,10.1.03,21.15,30.25,25.98,72.49v31.43Z"/><rect class="cls-10" x="124.69" y="157.06" width="51.63" height="44.9"/><rect class="cls-7" x="27.97" y="167" width="82.66" height="30.79"/><line class="cls-8" x1="110.63" y1="182.39" x2="124.69" y2="182.39"/><line class="cls-11" x1="176.32" y1="182.39" x2="190.39" y2="182.39"/><rect class="cls-14" x="134.24" y="146.38" width="32.54" height="11.31"/><path class="cls-9" d="m150.68,204.02c1.28,1.81,3,4.73,3.98,8.65.65,2.59.79,4.89.76,6.66h-9.83c.22-2.03.64-4.47,1.47-7.15,1.04-3.37,2.4-6.1,3.62-8.15Z"/><rect class="cls-13" x="35.07" y="172.98" width="18.83" height="18.83"/><rect class="cls-12" x="124.69" y="187.12" width="50.89" height="8.72"/><rect class="cls-3" x="60.69" y="172.98" width="18.83" height="18.83"/><rect class="cls-4" x="86.32" y="172.98" width="18.83" height="18.83"/><rect class="cls-2" x="191.22" y="167" width="82.66" height="30.79"/><rect class="cls-1" x="198.32" y="172.98" width="18.83" height="18.83"/><rect class="cls-6" x="223.94" y="172.98" width="18.83" height="18.83"/><rect class="cls-5" x="249.57" y="172.98" width="18.83" height="18.83"/></svg>